<svg id="visual" viewBox="0 0 900 100" width="900" height="100" xmlns="http://www.w3.org/2000/svg" xmlns:xlink="http://www.w3.org/1999/xlink" version="1.1"><path d="M0 30L8.8 31.7C17.7 33.3 35.3 36.7 53 36.2C70.7 35.7 88.3 31.3 106 29.3C123.7 27.3 141.3 27.7 159 30.5C176.7 33.3 194.3 38.7 212 40C229.7 41.3 247.3 38.7 265 38.5C282.7 38.3 300.3 40.7 318 40.8C335.7 41 353.3 39 371 39.3C388.7 39.7 406.3 42.3 423.8 40.3C441.3 38.3 458.7 31.7 476.2 28.7C493.7 25.7 511.3 26.3 529 28.2C546.7 30 564.3 33 582 33.2C599.7 33.3 617.3 30.7 635 30.5C652.7 30.3 670.3 32.7 688 32.7C705.7 32.7 723.3 30.3 741 31.3C758.7 32.3 776.3 36.7 794 39C811.7 41.3 829.3 41.7 847 40.7C864.7 39.7 882.3 37.3 891.2 36.2L900 35L900 101L891.2 101C882.3 101 864.7 101 847 101C829.3 101 811.7 101 794 101C776.3 101 758.7 101 741 101C723.3 101 705.7 101 688 101C670.3 101 652.7 101 635 101C617.3 101 599.7 101 582 101C564.3 101 546.7 101 529 101C511.3 101 493.7 101 476.2 101C458.7 101 441.3 101 423.8 101C406.3 101 388.7 101 371 101C353.3 101 335.7 101 318 101C300.3 101 282.7 101 265 101C247.3 101 229.7 101 212 101C194.3 101 176.7 101 159 101C141.3 101 123.7 101 106 101C88.3 101 70.7 101 53 101C35.3 101 17.7 101 8.8 101L0 101Z" fill="#cce3c4"></path><path d="M0 45L8.8 44.7C17.7 44.3 35.3 43.7 53 44.5C70.7 45.3 88.3 47.7 106 48C123.7 48.3 141.3 46.7 159 47C176.7 47.3 194.3 49.7 212 50.8C229.7 52 247.3 52 265 51.3C282.7 50.7 300.3 49.3 318 50.7C335.7 52 353.3 56 371 57.2C388.7 58.3 406.3 56.7 423.8 56.5C441.3 56.3 458.7 57.7 476.2 58.3C493.7 59 511.3 59 529 56.3C546.7 53.7 564.3 48.3 582 47.3C599.7 46.3 617.3 49.7 635 52C652.7 54.3 670.3 55.7 688 56C705.7 56.3 723.3 55.7 741 54.8C758.7 54 776.3 53 794 51.8C811.7 50.7 829.3 49.3 847 50.3C864.7 51.3 882.3 54.7 891.2 56.3L900 58L900 101L891.2 101C882.3 101 864.7 101 847 101C829.3 101 811.7 101 794 101C776.3 101 758.7 101 741 101C723.3 101 705.7 101 688 101C670.3 101 652.7 101 635 101C617.3 101 599.7 101 582 101C564.3 101 546.7 101 529 101C511.3 101 493.7 101 476.2 101C458.7 101 441.3 101 423.8 101C406.3 101 388.7 101 371 101C353.3 101 335.7 101 318 101C300.3 101 282.7 101 265 101C247.3 101 229.7 101 212 101C194.3 101 176.7 101 159 101C141.3 101 123.7 101 106 101C88.3 101 70.7 101 53 101C35.3 101 17.7 101 8.8 101L0 101Z" fill="#93a38a"></path><path d="M0 67L8.8 66.8C17.7 66.7 35.3 66.3 53 65.2C70.7 64 88.3 62 106 62.7C123.7 63.3 141.3 66.7 159 68.7C176.7 70.7 194.3 71.3 212 69.3C229.7 67.3 247.3 62.7 265 63C282.7 63.3 300.3 68.7 318 69.2C335.7 69.7 353.3 65.3 371 63.2C388.7 61 406.3 61 423.8 61.7C441.3 62.3 458.7 63.7 476.2 63.3C493.7 63 511.3 61 529 61.8C546.7 62.7 564.3 66.3 582 68.3C599.7 70.3 617.3 70.7 635 71.7C652.7 72.7 670.3 74.3 688 75C705.7 75.7 723.3 75.3 741 73.3C758.7 71.3 776.3 67.7 794 66.7C811.7 65.7 829.3 67.3 847 69.2C864.7 71 882.3 73 891.2 74L900 75L900 101L891.2 101C882.3 101 864.7 101 847 101C829.3 101 811.7 101 794 101C776.3 101 758.7 101 741 101C723.3 101 705.7 101 688 101C670.3 101 652.7 101 635 101C617.3 101 599.7 101 582 101C564.3 101 546.7 101 529 101C511.3 101 493.7 101 476.2 101C458.7 101 441.3 101 423.8 101C406.3 101 388.7 101 371 101C353.3 101 335.7 101 318 101C300.3 101 282.7 101 265 101C247.3 101 229.7 101 212 101C194.3 101 176.7 101 159 101C141.3 101 123.7 101 106 101C88.3 101 70.7 101 53 101C35.3 101 17.7 101 8.8 101L0 101Z" fill="#5c6854"></path><path d="M0 86L8.8 85.2C17.7 84.3 35.3 82.7 53 83C70.7 83.3 88.3 85.7 106 86.5C123.7 87.3 141.3 86.7 159 86.2C176.7 85.7 194.3 85.3 212 83.5C229.7 81.7 247.3 78.3 265 77C282.7 75.7 300.3 76.3 318 78.8C335.7 81.3 353.3 85.7 371 86.2C388.7 86.7 406.3 83.3 423.8 82C441.3 80.7 458.7 81.3 476.2 81.7C493.7 82 511.3 82 529 82C546.7 82 564.3 82 582 81.2C599.7 80.3 617.3 78.7 635 79C652.7 79.3 670.3 81.7 688 83.7C705.7 85.7 723.3 87.3 741 87.3C758.7 87.3 776.3 85.7 794 85C811.7 84.3 829.3 84.7 847 85.8C864.7 87 882.3 89 891.2 90L900 91L900 101L891.2 101C882.3 101 864.7 101 847 101C829.3 101 811.7 101 794 101C776.3 101 758.7 101 741 101C723.3 101 705.7 101 688 101C670.3 101 652.7 101 635 101C617.3 101 599.7 101 582 101C564.3 101 546.7 101 529 101C511.3 101 493.7 101 476.2 101C458.7 101 441.3 101 423.8 101C406.3 101 388.7 101 371 101C353.3 101 335.7 101 318 101C300.3 101 282.7 101 265 101C247.3 101 229.7 101 212 101C194.3 101 176.7 101 159 101C141.3 101 123.7 101 106 101C88.3 101 70.7 101 53 101C35.3 101 17.7 101 8.8 101L0 101Z" fill="#2b3323"></path></svg>